<?xml version="1.0" encoding="UTF-8"?>
<svg version="1.1" xmlns="http://www.w3.org/2000/svg" width="120" height="121">
<path d="M0 0 C0.85207031 0.32742187 1.70414062 0.65484375 2.58203125 0.9921875 C16.84636987 7.14719345 26.40698003 19.98075232 32.703125 33.65625 C37.86040532 46.95333421 38.26103807 63.7886246 33.25390625 77.1875 C25.96278346 93.54142029 14.71451157 106.0228415 -2 113 C-2.76054688 113.32097656 -3.52109375 113.64195313 -4.3046875 113.97265625 C-19.22157904 119.0958698 -36.79797095 117.00742874 -50.875 110.71484375 C-64.67313221 103.83494172 -75.09169906 92.1539517 -81 78 C-81.48146484 76.85917969 -81.48146484 76.85917969 -81.97265625 75.6953125 C-86.61337175 62.18327575 -85.60899908 45.01956408 -80 32 C-79.67257813 31.14792969 -79.34515625 30.29585937 -79.0078125 29.41796875 C-72.85280655 15.15363013 -60.01924768 5.59301997 -46.34375 -0.703125 C-31.87200808 -6.31599686 -14.26250164 -6.14447289 0 0 Z " fill="#F8FBFD" transform="translate(84,4)"/>
<path d="M0 0 C13.28652231 8.84583972 23.20312235 20.50858491 26.52709961 36.47192383 C28.40738016 48.25245707 28.1021865 61.10054823 22.921875 71.9453125 C22.49777344 72.8734375 22.07367188 73.8015625 21.63671875 74.7578125 C14.67965713 88.71069375 3.49826337 98.26343403 -10.953125 103.9453125 C-17.45992464 105.9329417 -23.60152691 106.39964848 -30.390625 106.4453125 C-31.29731934 106.45175781 -32.20401367 106.45820312 -33.13818359 106.46484375 C-47.39711003 106.19448307 -60.79526976 99.90219844 -71.0859375 90.1015625 C-77.70032012 82.94246602 -85.078125 73.00401817 -85.078125 62.9453125 C-84.00498047 62.78095703 -84.00498047 62.78095703 -82.91015625 62.61328125 C-73.09200951 61.05101469 -63.51803907 59.09195052 -54.078125 55.9453125 C-54.078125 47.3653125 -54.078125 38.7853125 -54.078125 29.9453125 C-55.728125 29.2853125 -57.378125 28.6253125 -59.078125 27.9453125 C-58.748125 27.2853125 -58.418125 26.6253125 -58.078125 25.9453125 C-56.00390625 25.56640625 -56.00390625 25.56640625 -53.390625 25.3828125 C-49.52286074 25.09522457 -45.94247703 24.58937117 -42.078125 23.9453125 C-42.078125 42.0953125 -42.078125 60.2453125 -42.078125 78.9453125 C-31.25641639 83.75496077 -21.41666906 87.40312428 -9.890625 83.3828125 C-3.70720614 80.68057191 0.33144834 76.15300162 2.921875 69.9453125 C3.90854015 63.19927639 2.93839777 57.49429319 -1.078125 51.9453125 C-4.80641769 47.9310138 -8.82445415 45.26109338 -14.33203125 44.7265625 C-20.29635324 44.50802246 -24.63966259 45.5282181 -30.078125 47.9453125 C-30.76218407 43.4799269 -31.11628414 39.57037761 -28.61328125 35.65234375 C-27.23076536 34.06176606 -25.8407873 32.47765809 -24.4453125 30.8984375 C-16.77895787 21.33447034 -11.90600063 10.02609973 -10.078125 -2.0546875 C-11.41110278 -2.38943984 -12.74452252 -2.72243259 -14.078125 -3.0546875 C-14.76648438 -3.23128906 -15.45484375 -3.40789063 -16.1640625 -3.58984375 C-33.38347817 -7.55677398 -49.19834254 -4.15717614 -64.078125 4.9453125 C-65.79816459 6.55683953 -67.48299809 8.21005295 -69.078125 9.9453125 C-69.738125 9.6153125 -70.398125 9.2853125 -71.078125 8.9453125 C-52.11083025 -10.37322845 -23.06021455 -14.27821574 0 0 Z " fill="#0977B4" transform="translate(90.078125,11.0546875)"/>
<path d="M0 0 C4.0830472 2.39657118 5.58523402 4.56249613 7 9 C7.71792674 16.80395692 7.6480244 23.97417524 4 31 C-0.01987251 33.67991501 -3.277269 33.68445377 -8 33 C-11.85148742 30.43234172 -13.04607147 27.45166648 -14 23 C-14.51021452 15.35741164 -14.74901251 8.12351877 -10.375 1.5625 C-6.98941875 -0.66485609 -3.87338484 -0.76235606 0 0 Z " fill="#066EAB" transform="translate(73,60)"/>
<path d="M0 0 C2.5 1.625 2.5 1.625 4 4 C4.48376933 7.87015465 4.29551985 10.78627221 2 14 C-0.67633026 16.0815902 -2.11753668 15.99587591 -5.5625 15.875 C-9 15 -9 15 -10.9375 13.375 C-12.43699866 10.02317947 -12.45377473 7.63019782 -12 4 C-9.10910635 -0.69770218 -5.08522732 -1.02121368 0 0 Z " fill="#35B6E9" transform="translate(45,15)"/>
<path d="M0 0 C1.4550293 0.01353516 1.4550293 0.01353516 2.93945312 0.02734375 C5.31406407 0.05073893 7.68814776 0.08351824 10.0625 0.125 C9.4025 0.455 8.7425 0.785 8.0625 1.125 C8.0625 1.785 8.0625 2.445 8.0625 3.125 C7.04671875 3.09019531 6.0309375 3.05539062 4.984375 3.01953125 C-9.95441605 2.65672683 -25.49642957 5.21645347 -36.84765625 15.8515625 C-37.53730469 16.60179688 -38.22695313 17.35203125 -38.9375 18.125 C-39.5975 17.795 -40.2575 17.465 -40.9375 17.125 C-29.62545753 5.60347527 -16.15606438 -0.28712076 0 0 Z " fill="#59C3ED" transform="translate(59.9375,2.875)"/>
<path d="M0 0 C4.95 0 9.9 0 15 0 C14.01 0.495 14.01 0.495 13 1 C13 1.66 13 2.32 13 3 C6.07 2.505 6.07 2.505 -1 2 C-0.67 1.34 -0.34 0.68 0 0 Z " fill="#35B6E9" transform="translate(55,3)"/>
<path d="M0 0 C0.99 0.33 1.98 0.66 3 1 C0.03 3.97 -2.94 6.94 -6 10 C-6 6.41087588 -5.33563446 5.89142971 -3 3.3125 C-2.443125 2.68988281 -1.88625 2.06726563 -1.3125 1.42578125 C-0.879375 0.95527344 -0.44625 0.48476563 0 0 Z " fill="#C5EAF8" transform="translate(18,21)"/>
<path d="M0 0 C-1.1875 1.5 -1.1875 1.5 -3 3 C-5.6875 3.1875 -5.6875 3.1875 -8 3 C-8 2.34 -8 1.68 -8 1 C-5.29120665 -0.35439668 -2.99066732 -0.06501451 0 0 Z " fill="#48BDEB" transform="translate(55,3)"/>
</svg>
